<svg width="24" height="24" viewBox="0 0 24 24" fill="none" xmlns="http://www.w3.org/2000/svg">
<path fill-rule="evenodd" clip-rule="evenodd" d="M9 3.5C9 2.39543 9.89543 1.5 11 1.5H13C14.1046 1.5 15 2.39543 15 3.5H18C19.1046 3.5 20 4.39543 20 5.5C20 6.60457 19.1046 7.5 18 7.5H6C4.89543 7.5 4 6.60457 4 5.5C4 4.39543 4.89543 3.5 6 3.5H9ZM5 9.5H19V15.1C19 17.3402 19 18.4603 18.564 19.316C18.1805 20.0686 17.5686 20.6805 16.816 21.064C15.9603 21.5 14.8402 21.5 12.6 21.5H11.4C9.15979 21.5 8.03969 21.5 7.18404 21.064C6.43139 20.6805 5.81947 20.0686 5.43597 19.316C5 18.4603 5 17.3402 5 15.1V9.5ZM10 12.5C9.44772 12.5 9 12.9477 9 13.5V17.5C9 18.0523 9.44772 18.5 10 18.5C10.5523 18.5 11 18.0523 11 17.5V13.5C11 12.9477 10.5523 12.5 10 12.5ZM14 12.5C13.4477 12.5 13 12.9477 13 13.5V17.5C13 18.0523 13.4477 18.5 14 18.5C14.5523 18.5 15 18.0523 15 17.5V13.5C15 12.9477 14.5523 12.5 14 12.5Z" fill="black"/>
</svg>
