<svg width="24" height="24" viewBox="0 0 24 24" fill="none" xmlns="http://www.w3.org/2000/svg">
<path fill-rule="evenodd" clip-rule="evenodd" d="M14 4.49997C14 3.3954 13.1045 2.49998 12 2.5C10.8954 2.50002 9.99998 3.39546 10 4.50003L10.0001 10H4.5C3.39543 10 2.5 10.8954 2.5 12C2.5 13.1046 3.39543 14 4.5 14H10.0002L10.0002 19.5C10.0003 20.6046 10.8957 21.5 12.0003 21.5C13.1048 21.5 14.0003 20.6045 14.0002 19.5L14.0002 14H19.5C20.6046 14 21.5 13.1046 21.5 12C21.5 10.8954 20.6046 10 19.5 10H14.0001L14 4.49997Z" fill="black"/>
</svg>
