<svg width="24" height="24" viewBox="0 0 24 24" fill="none" xmlns="http://www.w3.org/2000/svg">
<path fill-rule="evenodd" clip-rule="evenodd" d="M7 3H13.819L13.51 3.30892L11.9301 4.88883L11.319 5.5H7.5C6.39543 5.5 5.5 6.39543 5.5 7.5V16.5C5.5 17.6046 6.39543 18.5 7.5 18.5H16.5C17.6046 18.5 18.5 17.6046 18.5 16.5V12.6829L19.1121 12.0708L20.692 10.4909L21 10.1829V17C21 19.2091 19.2091 21 17 21H7C4.79086 21 3 19.2091 3 17V7C3 4.79086 4.79086 3 7 3ZM17.16 3.65901C18.0386 2.78033 19.4633 2.78033 20.3419 3.65901C21.2206 4.53769 21.2206 5.96231 20.3419 6.84099L18.692 8.4909L17.1121 10.0708L14.0264 13.1565C13.1995 13.9835 12.1015 14.4838 10.9348 14.5654L10.0186 14.6294C9.65112 14.6551 9.34581 14.3498 9.37151 13.9823L9.43555 13.0661C9.51712 11.8994 10.0175 10.8015 10.8445 9.9745L13.9301 6.88883L15.51 5.30892L17.16 3.65901Z" fill="black"/>
</svg>
