<svg width="20" height="20" viewBox="0 0 20 20" fill="none" xmlns="http://www.w3.org/2000/svg">
<path opacity="0.9" fill-rule="evenodd" clip-rule="evenodd" d="M0.653961 3.27606C0 4.55953 0 6.23969 0 9.6V10.4C0 13.7603 0 15.4405 0.653961 16.7239C1.2292 17.8529 2.14708 18.7708 3.27606 19.346C4.55953 20 6.23969 20 9.6 20H10.4C13.7603 20 15.4405 20 16.7239 19.346C17.8529 18.7708 18.7708 17.8529 19.346 16.7239C20 15.4405 20 13.7603 20 10.4V9.6C20 6.23969 20 4.55953 19.346 3.27606C18.7708 2.14708 17.8529 1.2292 16.7239 0.653961C15.4405 0 13.7603 0 10.4 0H9.6C6.23969 0 4.55953 0 3.27606 0.653961C2.14708 1.2292 1.2292 2.14708 0.653961 3.27606ZM14.8839 8.88388C15.372 8.39573 15.372 7.60427 14.8839 7.11612C14.3957 6.62796 13.6043 6.62796 13.1161 7.11612L9 11.2322L7.38388 9.61612C6.89573 9.12796 6.10427 9.12796 5.61612 9.61612C5.12796 10.1043 5.12796 10.8957 5.61612 11.3839L8.11612 13.8839C8.60427 14.372 9.39573 14.372 9.88388 13.8839L14.8839 8.88388Z" fill="black"/>
</svg>
