<svg width="24" height="24" viewBox="0 0 24 24" fill="none" xmlns="http://www.w3.org/2000/svg">
<path fill-rule="evenodd" clip-rule="evenodd" d="M12 0C10.2051 0 8.75 1.45507 8.75 3.25V9.75C8.75 11.5449 10.2051 13 12 13C13.7949 13 15.25 11.5449 15.25 9.75V3.25C15.25 1.45507 13.7949 0 12 0ZM20.25 9.75C20.25 8.92157 19.5784 8.25 18.75 8.25C17.9216 8.25 17.25 8.92157 17.25 9.75C17.25 11.1424 16.6969 12.4777 15.7123 13.4623C14.7277 14.4469 13.3924 15 12 15C10.6076 15 9.27226 14.4469 8.28769 13.4623C7.30312 12.4777 6.75 11.1424 6.75 9.75C6.75 8.92157 6.07843 8.25 5.25 8.25C4.42157 8.25 3.75 8.92157 3.75 9.75C3.75 11.938 4.61919 14.0365 6.16637 15.5836C7.35524 16.7725 8.8696 17.5611 10.5 17.8625V20H9C8.17157 20 7.5 20.6716 7.5 21.5C7.5 22.3284 8.17157 23 9 23H15C15.8284 23 16.5 22.3284 16.5 21.5C16.5 20.6716 15.8284 20 15 20H13.5V17.8625C15.1304 17.5611 16.6448 16.7725 17.8336 15.5836C19.3808 14.0365 20.25 11.938 20.25 9.75Z" fill="black"/>
</svg>
