<svg width="24" height="24" viewBox="0 0 24 24" fill="none" xmlns="http://www.w3.org/2000/svg">
<path fill-rule="evenodd" clip-rule="evenodd" d="M12 7.5L12 9.61399C12 10.3789 12.8816 10.8074 13.483 10.3348L18.0826 6.72079C18.5497 6.35378 18.5497 5.64622 18.0826 5.27921L13.483 1.66522C12.8816 1.19265 12 1.62111 12 2.38601L12 4.5C10.3189 4.5 8.67547 4.99852 7.27766 5.93251C5.87984 6.8665 4.79037 8.19402 4.14703 9.74719C3.50368 11.3004 3.33535 13.0094 3.66333 14.6583C3.9913 16.3071 4.80085 17.8217 5.9896 19.0104C7.17834 20.1992 8.6929 21.0087 10.3417 21.3367C11.9906 21.6646 13.6996 21.4963 15.2528 20.853C16.806 20.2096 18.1335 19.1202 19.0675 17.7223C20.0015 16.3245 20.5 14.6811 20.5 13C20.5 12.1716 19.8284 11.5 19 11.5C18.1716 11.5 17.5 12.1716 17.5 13C17.5 14.0878 17.1774 15.1512 16.5731 16.0556C15.9687 16.9601 15.1098 17.6651 14.1048 18.0813C13.0998 18.4976 11.9939 18.6065 10.927 18.3943C9.86011 18.1821 8.88011 17.6583 8.11092 16.8891C7.34173 16.1199 6.8179 15.1399 6.60568 14.073C6.39347 13.0061 6.50238 11.9002 6.91867 10.8952C7.33495 9.89025 8.0399 9.03126 8.94437 8.42692C9.84884 7.82257 10.9122 7.5 12 7.5Z" fill="black"/>
</svg>
