<svg width="24" height="24" viewBox="0 0 24 24" fill="none" xmlns="http://www.w3.org/2000/svg">
<path fill-rule="evenodd" clip-rule="evenodd" d="M7.41421 4.58579C6.63316 3.80474 5.36683 3.80474 4.58579 4.58579C3.80474 5.36683 3.80474 6.63316 4.58579 7.41421L9.17157 12L4.58579 16.5858C3.80474 17.3668 3.80474 18.6332 4.58579 19.4142C5.36683 20.1953 6.63316 20.1953 7.41421 19.4142L12 14.8284L16.5858 19.4142C17.3668 20.1953 18.6332 20.1953 19.4142 19.4142C20.1953 18.6332 20.1953 17.3668 19.4142 16.5858L14.8284 12L19.4142 7.41421C20.1953 6.63316 20.1953 5.36683 19.4142 4.58579C18.6332 3.80474 17.3668 3.80474 16.5858 4.58579L12 9.17157L7.41421 4.58579Z" fill="black"/>
</svg>
