<svg width="20" height="20" viewBox="0 0 20 20" fill="none" xmlns="http://www.w3.org/2000/svg">
<path opacity="0.9" fill-rule="evenodd" clip-rule="evenodd" d="M0.653961 3.27606C0 4.55953 0 6.23969 0 9.6V10.4C0 13.7603 0 15.4405 0.653961 16.7239C1.2292 17.8529 2.14708 18.7708 3.27606 19.346C4.55953 20 6.23969 20 9.6 20H10.4C13.7603 20 15.4405 20 16.7239 19.346C17.8529 18.7708 18.7708 17.8529 19.346 16.7239C20 15.4405 20 13.7603 20 10.4V9.6C20 6.23969 20 4.55953 19.346 3.27606C18.7708 2.14708 17.8529 1.2292 16.7239 0.653961C15.4405 0 13.7603 0 10.4 0H9.6C6.23969 0 4.55953 0 3.27606 0.653961C2.14708 1.2292 1.2292 2.14708 0.653961 3.27606ZM13.5881 8.4255C13.6692 8.17192 13.7098 7.87776 13.7098 7.54303C13.7098 7.01557 13.6084 6.55911 13.4055 6.17367C13.2026 5.78822 12.9338 5.47377 12.5991 5.23033C12.2644 4.97674 11.8789 4.79416 11.4428 4.68258C11.0167 4.56086 10.5755 4.5 10.119 4.5C9.63216 4.5 9.17064 4.571 8.73447 4.71301C8.2983 4.84488 7.90778 5.04774 7.5629 5.32162C7.21803 5.59549 6.93401 5.94037 6.71086 6.35625C6.49785 6.77213 6.36091 7.25394 6.30005 7.80168L8.71926 8.06034C8.73954 7.69518 8.85619 7.37059 9.0692 7.08657C9.28222 6.79241 9.60173 6.64533 10.0278 6.64533C10.3726 6.64533 10.6414 6.7417 10.8342 6.93442C11.037 7.12715 11.1385 7.3858 11.1385 7.71039C11.1385 7.94369 11.0776 8.14656 10.9559 8.319C10.8342 8.48129 10.6871 8.63852 10.5146 8.79067L10.0125 9.26234C9.80967 9.43478 9.63216 9.60214 9.48001 9.76444C9.338 9.92673 9.21628 10.0941 9.11485 10.2665C9.01341 10.439 8.93734 10.6317 8.88662 10.8447C8.8359 11.0476 8.81055 11.2809 8.81055 11.5446V12.1228H11.1841V11.7272C11.1841 11.5649 11.1943 11.428 11.2145 11.3164C11.245 11.1947 11.2906 11.0831 11.3515 10.9816C11.4123 10.8701 11.4935 10.7636 11.5949 10.6621C11.7065 10.5607 11.8434 10.444 12.0057 10.3122C12.2695 10.1093 12.5028 9.91659 12.7056 9.73401C12.9186 9.54128 13.0961 9.33841 13.2381 9.1254C13.3903 8.91239 13.507 8.67909 13.5881 8.4255ZM11.0624 15.3027C11.3464 15.0187 11.4884 14.6739 11.4884 14.2681C11.4884 14.0754 11.4478 13.8928 11.3667 13.7204C11.2957 13.5378 11.1892 13.3856 11.0472 13.2639C10.9153 13.1321 10.7581 13.0306 10.5755 12.9596C10.4031 12.8785 10.2154 12.8379 10.0125 12.8379C9.80967 12.8379 9.61695 12.8785 9.43437 12.9596C9.25178 13.0306 9.08949 13.1321 8.94748 13.2639C8.81562 13.3958 8.70911 13.553 8.62796 13.7356C8.55696 13.908 8.52146 14.0906 8.52146 14.2833C8.52146 14.4862 8.56203 14.6739 8.64318 14.8463C8.72433 15.0187 8.83083 15.1709 8.9627 15.3027C9.1047 15.4346 9.26193 15.536 9.43437 15.607C9.61695 15.6781 9.80967 15.7136 10.0125 15.7136C10.4284 15.7136 10.7784 15.5766 11.0624 15.3027Z" fill="black"/>
</svg>
