<svg width="24" height="24" viewBox="0 0 24 24" fill="none" xmlns="http://www.w3.org/2000/svg">
<path fill-rule="evenodd" clip-rule="evenodd" d="M12 2C10.7574 2 9.75 3.00736 9.75 4.25V4.84335C9.32616 4.97647 8.91853 5.1462 8.53083 5.34884L8.11091 4.92893C7.23223 4.05025 5.80761 4.05025 4.92893 4.92893C4.05025 5.80761 4.05025 7.23223 4.92893 8.11091L5.34884 8.53082C5.14621 8.91853 4.97647 9.32616 4.84335 9.75H4.25C3.00736 9.75 2 10.7574 2 12C2 13.2426 3.00736 14.25 4.25 14.25H4.84335C4.97647 14.6738 5.14621 15.0815 5.34884 15.4692L4.92893 15.8891C4.05025 16.7678 4.05025 18.1924 4.92893 19.0711C5.80761 19.9497 7.23223 19.9497 8.11091 19.0711L8.53083 18.6512C8.91853 18.8538 9.32616 19.0235 9.75 19.1566V19.75C9.75 20.9926 10.7574 22 12 22C13.2426 22 14.25 20.9926 14.25 19.75V19.1566C14.6738 19.0235 15.0815 18.8538 15.4692 18.6512L15.8891 19.0711C16.7678 19.9497 18.1924 19.9497 19.0711 19.0711C19.9497 18.1924 19.9497 16.7678 19.0711 15.8891L18.6512 15.4692C18.8538 15.0815 19.0235 14.6738 19.1566 14.25H19.75C20.9926 14.25 22 13.2426 22 12C22 10.7574 20.9926 9.75 19.75 9.75H19.1566C19.0235 9.32616 18.8538 8.91853 18.6512 8.53082L19.0711 8.11091C19.9497 7.23223 19.9497 5.80761 19.0711 4.92893C18.1924 4.05025 16.7678 4.05025 15.8891 4.92893L15.4692 5.34884C15.0815 5.14621 14.6738 4.97647 14.25 4.84335V4.25C14.25 3.00736 13.2426 2 12 2ZM12 16C14.2091 16 16 14.2091 16 12C16 9.79086 14.2091 8 12 8C9.79086 8 8 9.79086 8 12C8 14.2091 9.79086 16 12 16Z" fill="black"/>
</svg>
