<svg width="25" height="24" viewBox="0 0 25 24" fill="none" xmlns="http://www.w3.org/2000/svg">
<path fill-rule="evenodd" clip-rule="evenodd" d="M14.3637 3.54557C14.3637 2.4912 15.2184 1.63647 16.2728 1.63647C17.3271 1.63647 18.1818 2.4912 18.1818 3.54557V4.9092H21.6363C22.5401 4.9092 23.2727 5.64183 23.2727 6.54557C23.2727 7.4493 22.5401 8.18193 21.6363 8.18193H18.1818V9.54556C18.1818 10.5999 17.3271 11.4547 16.2728 11.4547C15.2184 11.4547 14.3637 10.5999 14.3637 9.54557V8.18193H3.09089C2.18715 8.18193 1.45453 7.4493 1.45453 6.54557C1.45453 5.64183 2.18715 4.9092 3.09089 4.9092H14.3637V3.54557ZM3.09089 15.8183C2.18715 15.8183 1.45453 16.5509 1.45453 17.4547C1.45453 18.3584 2.18715 19.091 3.09089 19.091H6.36362V20.4547C6.36362 21.509 7.21835 22.3637 8.27271 22.3637C9.32707 22.3637 10.1818 21.509 10.1818 20.4547V19.091H21.6363C22.5401 19.091 23.2727 18.3584 23.2727 17.4547C23.2727 16.5509 22.5401 15.8183 21.6363 15.8183H10.1818V14.4547C10.1818 13.4003 9.32707 12.5456 8.27271 12.5456C7.21835 12.5456 6.36362 13.4003 6.36362 14.4547V15.8183H3.09089Z" fill="black"/>
</svg>
