<svg width="24" height="24" viewBox="0 0 24 24" fill="none" xmlns="http://www.w3.org/2000/svg">
<path fill-rule="evenodd" clip-rule="evenodd" d="M12 3.49989L12 1.3859C12 0.621007 12.8816 0.192541 13.483 0.66511L18.0826 4.2791C18.5497 4.64611 18.5497 5.35367 18.0826 5.72069L13.483 9.33468C12.8816 9.80725 12 9.37878 12 8.61388L12 6.49989C10.993 6.49989 10.0054 6.77635 9.1447 7.29912C8.28404 7.8219 7.58342 8.57092 7.11923 9.46453C6.65503 10.3581 6.44508 11.3621 6.51225 12.3668C6.53901 12.7669 6.6093 13.1611 6.72078 13.5426C6.65056 13.5733 6.58215 13.6139 6.51702 13.6651L4.23522 15.458C3.8299 14.5478 3.58597 13.5695 3.51894 12.5669C3.41512 11.0141 3.7396 9.46265 4.45699 8.08161C5.17438 6.70057 6.25715 5.54299 7.58726 4.73507C8.91737 3.92714 10.4438 3.49989 12 3.49989ZM12 15.3859V22.6139C12 23.3788 11.1184 23.8072 10.517 23.3347L5.91737 19.7207C5.45026 19.3537 5.45026 18.6461 5.91737 18.2791L10.517 14.6651C11.1184 14.1925 12 14.621 12 15.3859ZM17.4831 10.3347C17.4179 10.3859 17.3495 10.4265 17.2792 10.4572C17.3907 10.8387 17.461 11.2329 17.4878 11.633C17.5549 12.6377 17.345 13.6416 16.8808 14.5353C16.4166 15.4289 15.716 16.1779 14.8553 16.7007C13.9946 17.2234 13.007 17.4999 12 17.4999V20.4999C13.5563 20.4999 15.0826 20.0726 16.4127 19.2647C17.7429 18.4568 18.8256 17.2992 19.543 15.9182C20.2604 14.5371 20.5849 12.9857 20.4811 11.4329C20.414 10.4303 20.1701 9.45199 19.7648 8.54187L17.4831 10.3347Z" fill="black"/>
</svg>
