<svg width="25" height="24" viewBox="0 0 25 24" fill="none" xmlns="http://www.w3.org/2000/svg">
<path fill-rule="evenodd" clip-rule="evenodd" d="M4.72729 14.75C6.24608 14.75 7.47729 13.5188 7.47729 12C7.47729 10.4812 6.24608 9.25 4.72729 9.25C3.20851 9.25 1.97729 10.4812 1.97729 12C1.97729 13.5188 3.20851 14.75 4.72729 14.75ZM15.4773 12C15.4773 13.5188 14.2461 14.75 12.7273 14.75C11.2085 14.75 9.97729 13.5188 9.97729 12C9.97729 10.4812 11.2085 9.25 12.7273 9.25C14.2461 9.25 15.4773 10.4812 15.4773 12ZM23.4773 12C23.4773 13.5188 22.2461 14.75 20.7273 14.75C19.2085 14.75 17.9773 13.5188 17.9773 12C17.9773 10.4812 19.2085 9.25 20.7273 9.25C22.2461 9.25 23.4773 10.4812 23.4773 12Z" fill="black"/>
</svg>
