<svg width="20" height="20" viewBox="0 0 20 20" fill="none" xmlns="http://www.w3.org/2000/svg">
<path opacity="0.9" fill-rule="evenodd" clip-rule="evenodd" d="M0.653961 3.27606C0 4.55953 0 6.23969 0 9.6V10.4C0 13.7603 0 15.4405 0.653961 16.7239C1.2292 17.8529 2.14708 18.7708 3.27606 19.346C4.55953 20 6.23969 20 9.6 20H10.4C13.7603 20 15.4405 20 16.7239 19.346C17.8529 18.7708 18.7708 17.8529 19.346 16.7239C20 15.4405 20 13.7603 20 10.4V9.6C20 6.23969 20 4.55953 19.346 3.27606C18.7708 2.14708 17.8529 1.2292 16.7239 0.653961C15.4405 0 13.7603 0 10.4 0H9.6C6.23969 0 4.55953 0 3.27606 0.653961C2.14708 1.2292 1.2292 2.14708 0.653961 3.27606ZM6.75 5.5C6.19772 5.5 5.75 5.94772 5.75 6.5C5.75 7.05228 6.19772 7.5 6.75 7.5H12.75C13.3023 7.5 13.75 7.05228 13.75 6.5C13.75 5.94772 13.3023 5.5 12.75 5.5H6.75ZM6.75 9C6.19772 9 5.75 9.44772 5.75 10C5.75 10.5523 6.19772 11 6.75 11H13.75C14.3023 11 14.75 10.5523 14.75 10C14.75 9.44772 14.3023 9 13.75 9H6.75ZM5.75 13.5C5.75 12.9477 6.19772 12.5 6.75 12.5H10.75C11.3023 12.5 11.75 12.9477 11.75 13.5C11.75 14.0523 11.3023 14.5 10.75 14.5H6.75C6.19772 14.5 5.75 14.0523 5.75 13.5Z" fill="black"/>
</svg>
