<svg width="24" height="24" viewBox="0 0 24 24" fill="none" xmlns="http://www.w3.org/2000/svg">
<path fill-rule="evenodd" clip-rule="evenodd" d="M3.00016 6C3.00016 5.17157 3.67174 4.5 4.50016 4.5H19.5002C20.3286 4.5 21.0002 5.17157 21.0002 6C21.0002 6.82843 20.3286 7.5 19.5002 7.5H4.50016C3.67174 7.5 3.00016 6.82843 3.00016 6ZM3 12C3 11.1716 3.67157 10.5 4.5 10.5H19.5C20.3284 10.5 21 11.1716 21 12C21 12.8284 20.3284 13.5 19.5 13.5H4.5C3.67157 13.5 3 12.8284 3 12ZM4.5 16.5C3.67157 16.5 3 17.1716 3 18C3 18.8284 3.67157 19.5 4.5 19.5H19.5C20.3284 19.5 21 18.8284 21 18C21 17.1716 20.3284 16.5 19.5 16.5H4.5Z" fill="black"/>
</svg>
