<svg width="24" height="24" viewBox="0 0 24 24" fill="none" xmlns="http://www.w3.org/2000/svg">
<path fill-rule="evenodd" clip-rule="evenodd" d="M13.8334 4.25C13.8334 3.2835 14.6169 2.5 15.5834 2.5C16.5499 2.5 17.3334 3.2835 17.3334 4.25V5.5H20.5C21.3284 5.5 22 6.17157 22 7C22 7.82843 21.3284 8.5 20.5 8.5H17.3334V9.75C17.3334 10.7165 16.5499 11.5 15.5834 11.5C14.6169 11.5 13.8334 10.7165 13.8334 9.75V8.5H3.5C2.67157 8.5 2 7.82843 2 7C2 6.17157 2.67157 5.5 3.5 5.5H13.8334V4.25ZM3.5 15.5C2.67157 15.5 2 16.1716 2 17C2 17.8284 2.67157 18.5 3.5 18.5H6.5V19.75C6.5 20.7165 7.2835 21.5 8.25 21.5C9.2165 21.5 10 20.7165 10 19.75V18.5H20.5C21.3284 18.5 22 17.8284 22 17C22 16.1716 21.3284 15.5 20.5 15.5H10V14.25C10 13.2835 9.2165 12.5 8.25 12.5C7.2835 12.5 6.5 13.2835 6.5 14.25V15.5H3.5Z" fill="black"/>
</svg>
