<svg width="24" height="24" viewBox="0 0 24 24" fill="none" xmlns="http://www.w3.org/2000/svg">
<path fill-rule="evenodd" clip-rule="evenodd" d="M17 8.50001V10.5833C17 10.961 17.4312 11.1766 17.7333 10.95L22.5111 7.36667C22.7556 7.18334 22.7556 6.81667 22.5111 6.63334L17.7333 3.05C17.4312 2.82339 17 3.03898 17 3.41667V5.50001C14.6378 5.50001 12.9091 6.25627 11.5701 7.43775C10.964 7.97251 10.4504 8.58598 10 9.21297C9.5496 8.58598 9.036 7.97252 8.42993 7.43775C7.09092 6.25627 5.36218 5.50001 3 5.50001C2.17157 5.50001 1.5 6.17158 1.5 7.00001C1.5 7.82844 2.17157 8.50001 3 8.50001C4.63782 8.50001 5.65908 8.99375 6.44507 9.68727C7.12451 10.2868 7.66543 11.0625 8.24548 12C7.66543 12.9375 7.12451 13.7132 6.44507 14.3128C5.65908 15.0063 4.63782 15.5 3 15.5C2.17157 15.5 1.5 16.1716 1.5 17C1.5 17.8284 2.17157 18.5 3 18.5C5.36218 18.5 7.09092 17.7438 8.42993 16.5623C9.036 16.0275 9.5496 15.414 10 14.7871C10.4504 15.414 10.964 16.0275 11.5701 16.5623C12.9091 17.7438 14.6378 18.5 17 18.5V20.5833C17 20.961 17.4312 21.1766 17.7333 20.95L22.5111 17.3667C22.7556 17.1833 22.7556 16.8167 22.5111 16.6333L17.7333 13.05C17.4312 12.8234 17 13.039 17 13.4167V15.5C15.3622 15.5 14.3409 15.0063 13.5549 14.3128C12.8755 13.7132 12.3346 12.9375 11.7545 12C12.3346 11.0625 12.8755 10.2868 13.5549 9.68727C14.3409 8.99375 15.3622 8.50001 17 8.50001Z" fill="black"/>
</svg>
