<svg width="25" height="24" viewBox="0 0 25 24" fill="none" xmlns="http://www.w3.org/2000/svg">
<path fill-rule="evenodd" clip-rule="evenodd" d="M8.90577 3.41827C8.60604 4.00653 8.60604 4.7766 8.60604 6.31675V13.1001C8.60604 14.6402 8.60604 15.4103 8.90577 15.9986C9.16942 16.516 9.59012 16.9367 10.1076 17.2003C10.6958 17.5001 11.4659 17.5001 13.006 17.5001H16.1227C17.6628 17.5001 18.4329 17.5001 19.0212 17.2003C19.5386 16.9367 19.9593 16.516 20.223 15.9986C20.5227 15.4103 20.5227 14.6402 20.5227 13.1001V6.31675C20.5227 4.7766 20.5227 4.00653 20.223 3.41827C19.9593 2.90083 19.5386 2.48013 19.0212 2.21648C18.4329 1.91675 17.6628 1.91675 16.1227 1.91675H13.006C11.4659 1.91675 10.6958 1.91675 10.1076 2.21648C9.59012 2.48013 9.16942 2.90083 8.90577 3.41827ZM6.02474 5.98306C6.24831 5.86914 6.49158 5.7877 6.77271 5.72947V14.9334C6.77271 16.4736 6.77271 17.2436 7.07244 17.8319C7.33609 18.3493 7.75679 18.77 8.27423 19.0337C8.86249 19.3334 9.63256 19.3334 11.1727 19.3334H16.71C16.6518 19.6145 16.5703 19.8578 16.4564 20.0814C16.1049 20.7713 15.5439 21.3322 14.854 21.6838C14.0697 22.0834 13.0429 22.0834 10.9894 22.0834H9.88937C7.83584 22.0834 6.80908 22.0834 6.02474 21.6838C5.33481 21.3322 4.77388 20.7713 4.42235 20.0814C4.02271 19.297 4.02271 18.2703 4.02271 16.2167V11.4501C4.02271 9.39656 4.02271 8.36979 4.42235 7.58545C4.77388 6.89552 5.33481 6.33459 6.02474 5.98306Z" fill="black"/>
</svg>
